<mxfile host="app.diagrams.net" modified="2023-09-13T02:07:30.189Z" agent="Mozilla/5.0 (Windows NT 10.0; Win64; x64) AppleWebKit/537.36 (KHTML, like Gecko) Chrome/116.0.0.0 Safari/537.36" version="21.6.6" etag="8XVVgH44r8MpLl-0YU1P" type="github">
  <diagram name="Page-1" id="MT5q7By_-NqorbmeLE0D">
    <mxGraphModel>
      <root>
        <mxCell id="0" />
        <mxCell id="1" parent="0" />
      </root>
    </mxGraphModel>
  </diagram>
</mxfile>
